#!OML:ASF Y:\EmotionMaleHayes\Project 1\Capture day 1\Session 1\Male1.ASF
:FULLY-SPECIFIED
:DEGREES
1417
root 43.1193 17.1152 -0.267694 684.195 100.852 693.394
lowerback 0.989836 1.08729 -12.348
upperback 4.93364 1.99064 -2.74246
thorax 4.3757 0.661295 4.07211
lowerneck -22.4811 -0.0701631 5.91105
upperneck 37.8725 -1.19672 -0.542439
head 17.814 0.762333 -1.40553
rclavicle 9.21864e-015 3.57812e-014
rhumerus 25.4096 21.4275 -50.6877
rradius 38.5036
rwrist 1.70982
rhand -2.11726 -27.218
rfingers 7.12502
rthumb 23.5609 -55.7948
lclavicle 9.21864e-015 3.57812e-014
lhumerus 35.2387 -24.6434 44.3255
lradius 38.6393
lwrist -3.38156
lhand 3.38853 -25.8863
lfingers 7.12502
lthumb 28.8318 1.90622
rfemur -2.6775 -3.53672 1.97484
rtibia 7.74702
rfoot -0.200325 -2.94994
rtoes 16.3065
lfemur 21.3395 -5.08654 -24.1476
ltibia 18.6916
lfoot -11.3363 -1.00505
ltoes -10.9448
1418
root 43.2102 17.1117 -0.236526 683.747 101.262 692.974
lowerback 0.55904 1.00007 -12.5024
upperback 4.93039 1.94178 -2.70475
thorax 4.62388 0.614519 4.20608
lowerneck -22.6591 -0.147143 5.75028
upperneck 37.696 -1.2947 -0.528536
head 17.7567 0.687959 -1.39383
rclavicle 4.27139e-014 3.97569e-015
rhumerus 25.5017 21.37 -50.4838
rradius 38.5735
rwrist 1.75054
rhand -2.00919 -27.199
rfingers 7.12502
rthumb 23.6646 -55.7624
lclavicle 4.27139e-014 3.97569e-015
lhumerus 35.39 -24.5795 44.4868
lradius 38.7264
lwrist -3.46253
lhand 3.48341 -25.7597
lfingers 7.12502
lthumb 28.9224 2.0174
rfemur -2.58416 -3.40996 1.65754
rtibia 7.82568
rfoot -0.604893 -2.71346
rtoes 12.7294
lfemur 21.5985 -5.09178 -24.1902
ltibia 18.7403
lfoot -11.0809 -1.19573
ltoes -10.4203
1419
root 43.3044 17.1012 -0.203425 685.998 101.237 695.483
lowerback 0.684729 0.969691 -11.9162
upperback 4.69498 1.81464 -2.47483
thorax 4.31359 0.585197 4.11855
lowerneck -22.6844 -0.20652 5.51039
upperneck 37.7816 -1.32557 -0.413008
head 17.8121 0.664899 -1.30439
rclavicle 8.08184e-015 -3.97569e-015
rhumerus 25.2128 21.4749 -50.5381
rradius 38.6008
rwrist 1.95135
rhand -1.8581 -27.0901
rfingers 7.12502
rthumb 23.8095 -55.6347
lclavicle 8.08184e-015 -3.97569e-015
lhumerus 35.0797 -24.6618 44.9272
lradius 38.8386
lwrist -3.73795
lhand 3.56367 -25.8503
lfingers 7.12502
lthumb 28.999 1.91364
rfemur -2.19828 -3.01265 2.28343
rtibia 7.69008
rfoot -0.473951 -3.19345
rtoes 13.2004
lfemur 22.1401 -5.12791 -23.3838
ltibia 18.7094
lfoot -10.7826 -1.34298
ltoes -10.8179
1420
root 43.3967 17.0975 -0.185953 683.357 102.02 692.722
lowerback 0.277082 0.840718 -12.4333
upperback 4.59641 1.72383 -2.68855
thorax 4.45968 0.523583 4.18397
lowerneck -22.825 -0.126153 5.59973
upperneck 37.7187 -1.17928 -0.620039
head 17.8152 0.69989 -1.3862
rclavicle -1.47349e-014 -3.26007e-014
rhumerus 25.2132 21.2471 -50.6835
rradius 38.506
rwrist 2.16148
rhand -1.66816 -27.0448
rfingers 7.12502
rthumb 23.9916 -55.5655
lclavicle -1.47349e-014 -3.26007e-014
lhumerus 35.2511 -24.7142 44.8349
lradius 38.9195
lwrist -3.67501
lhand 3.63473 -25.9194
lfingers 7.12502
lthumb 29.0669 1.83282
rfemur -2.11135 -3.57345 1.08781
rtibia 7.72039
rfoot -0.405381 -2.95664
rtoes 14.0417
lfemur 22.2541 -5.09021 -24.2601
ltibia 18.8686
lfoot -10.4748 -1.33084
ltoes -12.5085
1421
root 43.4985 17.0887 -0.162261 682.259 102.417 691.662
lowerback -0.098243 0.760435 -12.538
upperback 4.53784 1.67805 -2.77451
thorax 4.62125 0.491803 4.15705
lowerneck -23.0252 -0.0116074 5.84417
upperneck 37.6644 -1.00623 -0.950836
head 17.8381 0.749132 -1.54747
rclavicle 1.29769e-014 1.19271e-014
rhumerus 25.2524 21.1181 -50.7808
rradius 38.4639
rwrist 2.24904
rhand -1.59074 -27.1069
rfingers 7.12502
rthumb 24.0659 -55.6178
lclavicle 1.29769e-014 1.19271e-014
lhumerus 35.5344 -24.9126 44.4337
lradius 39.0549
lwrist -3.2823
lhand 3.61913 -25.7745
lfingers 7.12502
lthumb 29.052 1.98029
rfemur -1.87663 -3.54589 0.588572
rtibia 7.61665
rfoot -0.583865 -2.99284
rtoes 14.541
lfemur 22.6395 -4.97891 -24.4814
ltibia 18.8131
lfoot -10.2315 -1.32992
ltoes -13.2123
1422
root 43.6097 17.0747 -0.118636 682.455 102.333 692.005
lowerback -0.461854 0.774182 -12.395
upperback 4.44961 1.72291 -2.63142
thorax 4.72233 0.50808 4.23803
lowerneck -23.127 0.0781673 5.86454
upperneck 37.6039 -0.889311 -0.96556
head 17.8367 0.792886 -1.53334
rclavicle 1.25731e-014 3.49861e-014
rhumerus 25.2387 21.1612 -50.7007
rradius 38.5267
rwrist 2.27816
rhand -1.56165 -27.1258
rfingers 7.12502
rthumb 24.0938 -55.6331
lclavicle 1.25731e-014 3.49861e-014
lhumerus 35.5953 -25.0732 44.3002
lradius 39.2528
lwrist -3.00091
lhand 3.75217 -25.5958
lfingers 7.12502
lthumb 29.1791 2.13701
rfemur -1.67492 -2.43131 0.963471
rtibia 7.50105
rfoot -1.11244 -3.84889
rtoes 16.5456
lfemur 23.1777 -4.81033 -23.8902
ltibia 18.6568
lfoot -10.0391 -1.51636
ltoes -12.3602
1423
root 43.7074 17.0627 -0.0943825 682.089 102.811 691.654
lowerback -0.705979 0.670179 -12.4092
upperback 4.28545 1.60301 -2.65459
thorax 4.70543 0.453151 4.22103
lowerneck -22.9917 0.139905 5.90662
upperneck 37.3767 -0.750465 -1.12147
head 17.6805 0.819014 -1.58121
rclavicle -2.31584e-014 -6.2816e-014
rhumerus 25.1818 21.1778 -50.6067
rradius 38.5854
rwrist 2.37257
rhand -1.36168 -27.1153
rfingers 7.12502
rthumb 24.2855 -55.5971
lclavicle -2.31584e-014 -6.2816e-014
lhumerus 35.6418 -25.1995 44.3419
lradius 39.3685
lwrist -2.91545
lhand 3.83015 -25.4776
lfingers 7.12502
lthumb 29.2535 2.24223
rfemur -1.51626 -2.94408 0.488445
rtibia 7.73913
rfoot -1.16863 -3.60038
rtoes 18.3737
lfemur 23.4609 -4.84103 -24.0588
ltibia 18.7533
lfoot -9.85926 -1.82277
ltoes -12.6573
1424
root 43.804 17.0511 -0.0617248 681.467 103.402 691.016
lowerback -0.925746 0.549695 -12.6395
upperback 4.13152 1.47064 -2.70002
thorax 4.6882 0.38568 4.29758
lowerneck -23.0965 0.17676 5.77478
upperneck 37.2958 -0.682695 -1.05814
head 17.6671 0.831155 -1.515
rclavicle 5.41688e-015 2.14687e-014
rhumerus 25.2047 21.2306 -50.4492
rradius 38.6221
rwrist 2.26828
rhand -1.32695 -27.1578
rfingers 7.12502
rthumb 24.3188 -55.6351
lclavicle 5.41688e-015 2.14687e-014
lhumerus 35.8213 -25.3334 44.264
lradius 39.4291
lwrist -2.8577
lhand 3.59737 -25.5109
lfingers 7.12502
lthumb 29.0312 2.24748
rfemur -1.32825 -3.27236 -0.0666132
rtibia 7.87319
rfoot -1.20928 -3.41945
rtoes 17.4387
lfemur 23.6371 -4.95154 -24.3317
ltibia 18.964
lfoot -9.73515 -2.09671
ltoes -13.0494
1425
root 43.9113 17.0287 -0.0170771 685.215 103.166 695.159
lowerback -0.860908 0.499625 -11.5935
upperback 4.01943 1.30581 -2.34706
thorax 4.5481 0.335634 4.0857
lowerneck -23.3308 0.157244 5.52861
upperneck 37.3007 -0.696839 -0.907215
head 17.7306 0.810844 -1.40705
rclavicle 1.9133e-015 -4.37326e-014
rhumerus 25.1412 21.2482 -50.3577
rradius 38.6304
rwrist 2.24146
rhand -1.37181 -27.1212
rfingers 7.12502
rthumb 24.2758 -55.6043
lclavicle 1.9133e-015 -4.37326e-014
lhumerus 35.8542 -25.5107 44.2153
lradius 39.5831
lwrist -2.76378
lhand 3.4154 -25.7051
lfingers 7.12502
lthumb 28.8574 2.08304
rfemur -0.648309 -2.4606 1.31314
rtibia 7.51416
rfoot -1.56808 -4.12264
rtoes 15.1946
lfemur 24.3111 -5.10757 -22.7971
ltibia 18.9405
lfoot -9.60466 -2.45656
ltoes -12.2088
1426
root 44.0009 17.0218 -0.00673123 680.061 104.919 689.474
lowerback -1.20168 0.267468 -13.2512
upperback 3.62278 1.11822 -2.90022
thorax 4.36374 0.231799 4.40965
lowerneck -23.3429 0.175538 5.40317
upperneck 37.2664 -0.619913 -0.899391
head 17.7181 0.823779 -1.3646
rclavicle 4.37326e-015 -3.18055e-014
rhumerus 24.9543 21.2514 -50.3316
rradius 38.6355
rwrist 2.34389
rhand -1.23379 -27.0316
rfingers 7.12502
rthumb 24.4081 -55.4969
lclavicle 4.37326e-015 -3.18055e-014
lhumerus 35.4394 -25.1662 45.1959
lradius 39.5667
lwrist -3.66993
lhand 3.72815 -26.2311
lfingers 7.12502
lthumb 29.1561 1.50572
rfemur -0.835771 -3.96508 -1.61319
rtibia 7.89324
rfoot -1.44726 -3.22913
rtoes 15.1939
lfemur 23.8896 -5.13731 -25.2015
ltibia 19.4421
lfoot -9.52808 -2.5583
ltoes -12.0587
1427
root 44.1143 16.9982 0.0404502 680.834 104.834 690.329
lowerback -1.73084 0.204034 -12.9832
upperback 3.64121 1.09182 -2.69337
thorax 4.68558 0.197853 4.48636
lowerneck -23.5995 0.302883 5.36054
upperneck 37.0494 -0.394453 -1.05174
head 17.6725 0.867206 -1.38148
rclavicle -2.70347e-014 2.70347e-014
rhumerus 25.3353 21.3071 -49.9037
rradius 38.7187
rwrist 2.14496
rhand -1.2118 -27.0954
rfingers 7.12502
rthumb 24.4292 -55.5579
lclavicle -2.70347e-014 2.70347e-014
lhumerus 35.2997 -24.4028 46.0789
lradius 39.5433
lwrist -4.57325
lhand 4.17314 -26.6738
lfingers 7.12502
lthumb 29.581 0.9885
rfemur -0.616148 -3.05699 -1.04166
rtibia 7.72549
rfoot -1.84271 -4.07027
rtoes 16.3952
lfemur 24.2569 -5.09371 -24.4884
ltibia 19.4442
lfoot -9.4855 -2.61652
ltoes -12.37
1428
root 44.2262 16.9752 0.075063 681.383 105.015 690.947
lowerback -1.96353 0.0992926 -12.6581
upperback 3.48528 0.951225 -2.67204
thorax 4.67294 0.142295 4.3255
lowerneck -23.8295 0.431426 5.34952
upperneck 36.9346 -0.201188 -1.12526
head 17.6765 0.921849 -1.3735
rclavicle -4.01048e-014 2.3059e-014
rhumerus 25.4701 21.5097 -49.7005
rradius 38.8428
rwrist 1.94649
rhand -1.33049 -27.2175
rfingers 7.12502
rthumb 24.3154 -55.6952
lclavicle -4.01048e-014 2.3059e-014
lhumerus 35.8064 -25.2139 44.6112
lradius 39.9639
lwrist -3.06426
lhand 3.91122 -26.2373
lfingers 7.12502
lthumb 29.3309 1.46903
rfemur -0.26189 -2.88919 -0.888107
rtibia 7.59839
rfoot -2.02759 -4.2222
rtoes 15.7023
lfemur 24.6404 -5.17518 -24.179
ltibia 19.5041
lfoot -9.40432 -2.81373
ltoes -12.5361
1429
root 44.3354 16.9513 0.10486 679.853 105.737 689.345
lowerback -2.28668 -0.0726778 -13.1707
upperback 3.33301 0.797605 -2.82819
thorax 4.72697 0.0574402 4.43598
lowerneck -23.9427 0.573717 5.41676
upperneck 36.7615 0.0332306 -1.31226
head 17.6208 0.985022 -1.42156
rclavicle 5.66536e-015 -3.10104e-014
rhumerus 25.6855 21.6925 -49.496
rradius 38.9614
rwrist 1.81737
rhand -1.48581 -27.323
rfingers 7.12502
rthumb 24.1665 -55.8207
lclavicle 5.66536e-015 -3.10104e-014
lhumerus 36.2942 -25.9904 43.0573
lradius 40.5021
lwrist -1.4584
lhand 3.48562 -25.6483
lfingers 7.12502
lthumb 28.9245 2.12844
rfemur 0.0072343 -3.25184 -1.83829
rtibia 7.65969
rfoot -2.04281 -3.80623
rtoes 14.5646
lfemur 24.8229 -5.19575 -24.8328
ltibia 19.7718
lfoot -9.32768 -3.05496
ltoes -12.9233
1430
root 44.4409 16.9259 0.134206 678.414 106.523 687.744
lowerback -2.57973 -0.227642 -13.6851
upperback 3.09338 0.657773 -3.01521
thorax 4.66894 -0.00877585 4.51381
lowerneck -23.9455 0.600744 5.49918
upperneck 36.5917 0.123672 -1.56855
head 17.5321 0.984248 -1.53403
rclavicle -3.97569e-015 -3.57812e-015
rhumerus 25.7349 21.7976 -49.328
rradius 39.0761
rwrist 1.73019
rhand -1.46981 -27.2989
rfingers 7.12502
rthumb 24.1818 -55.7945
lclavicle -3.97569e-015 -3.57812e-015
lhumerus 36.0622 -25.9704 43.0207
lradius 41.0825
lwrist -1.61266
lhand 3.70652 -25.5248
lfingers 7.12502
lthumb 29.1355 2.21557
rfemur 0.0831859 -3.86924 -2.91496
rtibia 7.86414
rfoot -1.8823 -3.33844
rtoes 14.4805
lfemur 24.8604 -5.231 -25.5631
ltibia 20.0871
lfoot -9.2638 -3.31011
ltoes -12.5607
1431
root 44.5564 16.8917 0.184465 678.784 106.443 688.198
lowerback -2.83438 -0.253698 -13.4252
upperback 2.93905 0.61999 -2.8887
thorax 4.65031 -0.0193885 4.50514
lowerneck -24.1934 0.740928 5.53704
upperneck 36.4537 0.32894 -1.69329
head 17.5303 1.04148 -1.55489
rclavicle 3.95581e-014 3.97569e-014
rhumerus 25.8666 21.7493 -49.2075
rradius 39.0864
rwrist 1.65557
rhand -1.28052 -27.0919
rfingers 7.12502
rthumb 24.3633 -55.5632
lclavicle 3.95581e-014 3.97569e-014
lhumerus 36.0314 -25.8256 42.9708
lradius 41.3493
lwrist -1.96459
lhand 4.02476 -25.7762
lfingers 7.12502
lthumb 29.4393 1.91118
rfemur 0.244254 -3.19983 -2.44675
rtibia 7.81099
rfoot -2.10528 -3.81187
rtoes 15.6769
lfemur 25.2342 -5.23583 -24.963
ltibia 20.1526
lfoot -9.1925 -3.58926
ltoes -12.2013
